PathFileType	4	(X/Y/Z)	D:\Long Term Storage\D'Arcy Smith\Coord13.trc
DataRate	CameraRate	NumFrames	NumMarkers	Units	OrigDataRate	OrigDataStartFrame	OrigNumFrames
120.00	120.00	      60	4	mm	120.00	1799	      4795
Frame#	Time	M1			M2			M3			M4			
		X1	Y1	Z1	X2	Y2	Z2	X3	Y3	Z3	X4	Y4	Z4	

1799	14.983	1038.42419	329.04794	229.06294	1666.78870	293.95642	609.89417							
1800	14.992	1038.21960	326.67764	232.12608	1669.20715	293.20010	605.10297							
1801	15.000	1038.13831	324.30316	235.20053	1671.73608	292.48206	600.07916							
1802	15.008	1038.02258	321.79675	238.61768	1673.86047	291.57306	594.75513							
1803	15.017	1037.48059	318.77753	242.09077	1676.01953	290.71136	589.14923							
1804	15.025	1037.77808	316.11301	245.76411	1677.34497	289.43350	583.22076							
1805	15.033	1037.50647	313.20248	249.59938	1679.04565	288.53131	577.18542							
1806	15.042	1037.35596	310.02917	253.60947	1680.41479	287.41486	570.65509							
1807	15.050	1037.12610	306.92590	257.84851	1681.82935	286.38300	564.14954							
1808	15.058	1036.92651	303.75595	262.28412	1683.18872	285.51852	557.00439							
1809	15.067	1036.69910	300.38211	267.01443	1684.55554	284.60873	549.75183							
1810	15.075	1036.35474	297.11731	271.84421	1685.59924	283.67389	542.24377							
1811	15.083	1036.10840	293.86844	276.87634	1686.47754	282.69742	534.38696							
1812	15.092	1035.88647	290.50009	282.13101	1687.51160	282.11414	526.38538							
1813	15.100	1035.53894	287.16620	287.60931	1688.65649	281.83652	518.32837							
1814	15.108	1035.14673	283.70566	293.32706	1689.40430	281.50986	509.98999							
1815	15.117	1034.79504	280.31305	299.22568	1690.18970	281.48218	501.60553							
1816	15.125	1034.17468	276.83582	305.22824	1691.01123	281.63293	493.20236							
1817	15.133	1034.03320	273.59720	311.61987	1691.88562	282.04803	484.62192							
1818	15.142	1033.46716	270.48193	318.24792	1693.01025	282.85519	475.38931							
1819	15.150	1033.15283	267.67273	324.55899	1693.68921	283.54706	466.78592							
1820	15.158	1032.35693	264.96829	332.56186	1694.61987	284.75415	458.08334							
1821	15.167	1031.93164	262.41977	339.67010	1695.55676	286.27255	449.32901							
1822	15.175	1031.40137	260.26334	346.87366	1696.33948	287.89752	440.63080							
1823	15.183	1030.78625	257.99258	354.10184	1697.21887	289.82312	431.82153							
1824	15.192	1030.47217	255.57793	362.30801	1698.00635	291.94586	423.04391							
1825	15.200	1029.97937	253.87213	369.76538	1698.83936	294.29456	414.31232							
1826	15.208	1029.32422	252.14874	377.14133	1699.66479	296.86484	405.59598							
1827	15.217	1028.69031	250.55434	384.72021	1700.48462	299.60675	396.85321							
1828	15.225	1028.38269	249.29689	392.37518	1701.33118	302.44266	388.17557							
1829	15.233	1027.68896	247.91479	399.99719	1702.00562	305.51462	379.66501							
1830	15.242	1027.07458	246.88501	407.72809	1702.89734	308.73431	371.11005							
1831	15.250	1026.45374	246.18739	415.33871	1703.62085	312.17984	362.72345							
1832	15.258	1025.97290	245.59558	423.07831	1704.34363	315.61176	354.47815							
1833	15.267	1025.46790	245.26143	430.69244	1705.21863	319.33035	346.43158							
1834	15.275	1024.82642	245.15163	438.23422	1705.97595	323.04886	338.51721							
1835	15.283	1024.25891	244.99802	445.65802	1706.57678	326.70456	331.46054							
1836	15.292	1023.71960	245.06842	452.98734	1707.33997	330.52786	324.12692							
1837	15.300	1023.06183	245.16057	460.01566	1708.03052	334.42679	317.21402							
1838	15.308	1022.67114	245.23811	466.86743	1708.87061	338.21719	310.20975							
1839	15.317	1022.19507	245.50804	473.48685	1709.53137	342.05841	303.87189							
1840	15.325	1021.70471	245.84999	479.98886	1710.22546	345.80576	297.58322							
1841	15.333	1021.27563	246.23225	486.38202	1710.95703	349.53610	291.99829							
1842	15.342	1020.81677	246.59808	492.55991	1711.76611	353.22021	286.73462							
1843	15.350	1020.62366	247.12317	498.45160	1712.41553	356.59027	281.84216							
1844	15.358	1019.89209	247.82524	504.18234	1713.13770	359.73425	277.38699							
1845	15.367	1019.73462	248.57639	509.62930	1713.97449	362.79898	273.30280							
1846	15.375	1019.31238	249.53351	515.02478	1714.89502	365.68713	269.71579							
1847	15.383	1018.74792	250.31392	519.83728	1715.37854	368.23605	266.44809							
1848	15.392	1018.50775	251.30257	524.32697	1715.93018	370.70111	263.77258							
1849	15.400	1018.22748	252.20209	528.53558	1716.49280	372.76068	261.40897							
1850	15.408	1017.40448	253.62595	531.91211	1716.82996	374.72864	259.42886							
1851	15.417	1017.01306	254.54526	535.44006	1717.14368	376.22357	257.84467							
1852	15.425	1016.72473	255.23891	538.65936	1717.42114	377.48849	256.75772							
1853	15.433	1016.51312	256.06564	541.66510	1717.79077	378.60779	255.90607							
1854	15.442	1016.07123	256.74387	544.11768	1717.97925	379.31982	255.36487							
1855	15.450	1015.67859	257.32675	546.42059	1718.17114	379.73758	255.22746							
1856	15.458	1015.36731	257.89334	548.33923	1718.11841	379.80511	255.45061							
1857	15.467	1015.02704	258.54324	549.85809	1718.03687	379.62772	255.92146							
1858	15.475	1014.69183	259.13663	550.97083	1717.81006	379.17325	256.68073							
